<svg width="300" height="300" viewBox="0 0 300 300" fill="none" xmlns="http://www.w3.org/2000/svg">
  <g clip-path="url(#clip0_1_10)">
    <path
      d="M121.97 18.1551c15.888-14.46399 40.172-14.46401 56.06 0l8.059 7.3366c7.17 6.5275 16.394 10.3479 26.079 10.8023l10.886.5107c21.463 1.0069 38.634 18.1787 39.641 39.6408l.511 10.8863c.454 9.6856 4.275 18.9092 10.802 26.0792l7.337 8.059c14.464 15.888 14.464 40.172 0 56.06l-7.337 8.059c-6.527 7.17-10.348 16.394-10.802 26.079l-.511 10.886c-1.007 21.463-18.178 38.634-39.64 39.641l-10.887.511c-9.685.454-18.909 4.275-26.079 10.802l-8.059 7.337c-15.888 14.464-40.172 14.464-56.06 0l-8.059-7.337c-7.17-6.527-16.3935-10.348-26.0791-10.802l-10.8863-.511c-21.4621-1.007-38.6339-18.178-39.6408-39.641l-.5108-10.886c-.4544-9.685-4.2748-18.909-10.8022-26.079l-7.3367-8.059c-14.46396-15.888-14.46398-40.172 0-56.06l7.3367-8.059c6.5274-7.17 10.3478-16.3936 10.8022-26.0792l.5108-10.8863c1.0069-21.4621 18.1786-38.6339 39.6407-39.6408l10.8864-.5107c9.6855-.4544 18.9091-4.2748 26.0791-10.8022l8.059-7.3367z"
      fill="#2CACD6" />
    <path fill-rule="evenodd" clip-rule="evenodd"
          d="M116.714 12.382c18.867-17.17597 47.705-17.176 66.572 0l8.059 7.3367c5.826 5.3035 13.319 8.4076 21.189 8.7768l10.886.5107c25.487 1.1957 45.878 21.5872 47.074 47.0734l.51 10.8864c.37 7.8695 3.474 15.363 8.777 21.189l7.337 8.059c17.176 18.867 17.176 47.705 0 66.572l-7.337 8.059c-5.303 5.826-8.407 13.319-8.777 21.189l-.51 10.886c-1.196 25.487-21.587 45.878-47.074 47.074l-10.886.51c-7.87.37-15.363 3.474-21.189 8.777l-8.059 7.337c-18.867 17.176-47.705 17.176-66.572 0l-8.059-7.337c-5.826-5.303-13.3195-8.407-21.189-8.777l-10.8863-.51c-25.4863-1.196-45.8778-21.587-47.0735-47.074l-.5107-10.886c-.3692-7.869-3.4733-15.363-8.7768-21.189l-7.3367-8.059c-17.17598-18.867-17.17602-47.705 0-66.572l7.3366-8.059c5.3036-5.826 8.4077-13.3195 8.7769-21.189l.5107-10.8863c1.1957-25.4863 21.5872-45.8778 47.0734-47.0735l10.8863-.5107c7.8696-.3692 15.3631-3.4733 21.1891-8.7768l8.059-7.3367zm56.061 11.5462c-12.909-11.752-32.641-11.752-45.55 0l-8.059 7.3367c-8.514 7.7513-19.4667 12.288-30.9683 12.8276l-10.8863.5108c-17.438.8181-31.39 14.7702-32.2082 32.2081l-.5107 10.8863c-.5396 11.5016-5.0764 22.4543-12.8277 30.9683l-7.3366 8.059c-11.752 12.909-11.752 32.641 0 45.55l7.3366 8.059c7.7514 8.514 12.2881 19.467 12.8277 30.968l.5107 10.887c.8182 17.438 14.7702 31.39 32.2082 32.208l10.8863.51c11.5016.54 22.4543 5.077 30.9683 12.828l8.059 7.337c12.909 11.752 32.641 11.752 45.55 0l8.059-7.337c8.514-7.751 19.467-12.288 30.968-12.828l10.887-.51c17.438-.818 31.39-14.77 32.208-32.208l.51-10.887c.54-11.501 5.077-22.454 12.828-30.968l7.337-8.059c11.752-12.909 11.752-32.641 0-45.55l-7.337-8.059c-7.751-8.514-12.288-19.4667-12.828-30.9683l-.51-10.8863c-.818-17.438-14.77-31.39-32.208-32.2081l-10.887-.5108c-11.501-.5396-22.454-5.0763-30.969-12.8277l-8.058-7.3366z"
          fill="#fff" />
    <path
      d="M149.996 199.997l-36.312 22.629c-1.604 1.057-3.282 1.509-5.032 1.358-1.75-.151-3.281-.754-4.593-1.811-1.313-1.056-2.334-2.377-3.063-3.964-.729-1.587-.875-3.359-.437-5.314l9.625-42.769-32.1566-28.74c-1.4583-1.357-2.3683-2.904-2.73-4.642-.3616-1.738-.2537-3.434.3238-5.088.5833-1.659 1.4583-3.016 2.625-4.073 1.1667-1.056 2.7708-1.735 4.8125-2.037l42.4373-3.847 16.406-40.2798c.73-1.8104 1.861-3.1681 3.395-4.0733 1.535-.9052 3.101-1.3577 4.699-1.3577 1.604 0 3.171.4525 4.699 1.3577 1.528.9052 2.66 2.2629 3.395 4.0733l16.406 40.2798 42.438 3.847c2.041.302 3.646.981 4.812 2.037 1.167 1.057 2.042 2.414 2.625 4.073.584 1.659.694 3.358.333 5.096-.362 1.738-1.275 3.283-2.739 4.634l-32.156 28.74 9.625 42.769c.437 1.961.291 3.736-.438 5.322-.729 1.588-1.75 2.906-3.062 3.956-1.313 1.057-2.844 1.66-4.594 1.811-1.75.151-3.427-.301-5.031-1.358l-36.313-22.629z"
      fill="#fff" />
  </g>
  <defs>
    <clipPath id="clip0_1_10">
      <path fill="#fff" d="M0 0h300v300H0z" />
    </clipPath>
  </defs>
</svg>
