<svg width="20" height="20" viewBox="0 0 20 20" fill="none" xmlns="http://www.w3.org/2000/svg">
    <g clip-path="url(#3a43lak2aa)">
        <path d="M10 20C4.477 20 0 15.523 0 10S4.477 0 10 0s10 4.477 10 10-4.477 10-10 10zM9.062 4.687V10c0 .313.157.605.418.781l3.75 2.5a.935.935 0 0 0 1.301-.261.934.934 0 0 0-.261-1.301L10.938 9.5V4.687A.935.935 0 0 0 10 3.75a.935.935 0 0 0-.938.938z" fill="#2CACD6"/>
    </g>
    <defs>
        <clipPath id="3a43lak2aa">
            <path fill="#fff" d="M0 0h20v20H0z"/>
        </clipPath>
    </defs>
</svg>
