<svg width="9" height="8" viewBox="0 0 9 8" fill="none" xmlns="http://www.w3.org/2000/svg">
<path d="M7.425 7H1.575C1.45125 7 1.35 7.1125 1.35 7.25V7.75C1.35 7.8875 1.45125 8 1.575 8H7.425C7.54875 8 7.65 7.8875 7.65 7.75V7.25C7.65 7.1125 7.54875 7 7.425 7ZM8.325 2C7.95234 2 7.65 2.33594 7.65 2.75C7.65 2.86094 7.6725 2.96406 7.71188 3.05938L6.69375 3.7375C6.47719 3.88125 6.19734 3.8 6.07219 3.55625L4.92609 1.32812C5.07656 1.19062 5.175 0.984375 5.175 0.75C5.175 0.335938 4.87266 0 4.5 0C4.12734 0 3.825 0.335938 3.825 0.75C3.825 0.984375 3.92344 1.19062 4.07391 1.32812L2.92781 3.55625C2.80266 3.8 2.52141 3.88125 2.30625 3.7375L1.28953 3.05938C1.3275 2.96563 1.35141 2.86094 1.35141 2.75C1.35141 2.33594 1.04906 2 0.676406 2C0.30375 2 0 2.33594 0 2.75C0 3.16406 0.302344 3.5 0.675 3.5C0.711562 3.5 0.748125 3.49375 0.783281 3.4875L1.8 6.5H7.2L8.21672 3.4875C8.25187 3.49375 8.28844 3.5 8.325 3.5C8.69766 3.5 9 3.16406 9 2.75C9 2.33594 8.69766 2 8.325 2Z" fill="#2CACD6"/>
</svg>
