<svg width="20" height="20" viewBox="0 0 20 20" fill="none" xmlns="http://www.w3.org/2000/svg">
    <path d="M18.473.106a.625.625 0 0 1 .277.519V10a.624.624 0 0 1-.392.58l-.233-.58.233.58-.004.001-.008.004-.029.011c-.164.066-.33.128-.496.188-.33.118-.789.278-1.309.437-1.02.315-2.348.654-3.387.654-1.059 0-1.935-.35-2.697-.656l-.036-.013c-.792-.319-1.467-.581-2.267-.581-.875 0-2.048.287-3.046.596-.447.14-.89.292-1.329.457v7.697a.625.625 0 1 1-1.25 0V.625a.625.625 0 0 1 1.25 0v.353c.282-.1.62-.213.987-.326C5.758.34 7.088 0 8.125 0c1.05 0 1.905.346 2.651.649l.054.022c.777.314 1.455.579 2.295.579.875 0 2.047-.287 3.046-.596a24.5 24.5 0 0 0 1.687-.595L17.88.05l.005-.003h.002" fill="#2CACD6"/>
</svg>
