<svg xmlns="http://www.w3.org/2000/svg" width="22" height="22" viewBox="0 0 22 22">
    <g fill="none" fill-rule="evenodd">
        <g fill="#FF9761" fill-rule="nonzero">
            <g>
                <g>
                    <g>
                        <path d="M10.535 17.632l-4.532 2.383c-.489.257-1.093.07-1.35-.42-.103-.194-.138-.417-.1-.634l.865-5.046c.055-.324-.052-.655-.288-.885L1.462 9.455c-.395-.385-.403-1.018-.018-1.414.154-.157.355-.26.572-.291l5.067-.737c.326-.047.607-.252.753-.547l2.267-4.591c.245-.496.844-.699 1.34-.454.197.097.356.257.454.454l2.266 4.591c.146.295.427.5.753.547l5.067.737c.546.079.925.586.846 1.133-.032.218-.135.419-.292.572L16.87 13.03c-.236.23-.343.56-.288.885l.867 5.046c.093.544-.273 1.061-.817 1.155-.217.037-.44.002-.634-.1l-4.533-2.384c-.291-.153-.639-.153-.93 0z" transform="translate(-15 -373) translate(15 255) translate(0 118) translate(0 .44)"/>
                    </g>
                </g>
            </g>
        </g>
    </g>
</svg>
