<svg width="7" height="15" viewBox="0 0 7 15" fill="none" xmlns="http://www.w3.org/2000/svg">
    <path d="M5.35 0c1.02 0 1.53.684 1.53 1.468 0 .978-.886 1.884-2.039 1.884-.965 0-1.528-.563-1.502-1.493C3.34 1.077 4.01 0 5.35 0zM2.213 15c-.805 0-1.394-.489-.831-2.643l.923-3.819c.161-.61.188-.856 0-.856-.24 0-1.285.422-1.903.838L0 7.86c1.957-1.64 4.208-2.6 5.175-2.6.804 0 .938.955.536 2.422l-1.058 4.014c-.187.709-.108.954.08.954.242 0 1.033-.295 1.81-.906l.457.61C5.096 14.266 3.017 15 2.213 15z" fill="#F5F5F5" fill-opacity=".6"/>
</svg>
