<svg width="80" height="80" viewBox="0 0 80 80" fill="none" xmlns="http://www.w3.org/2000/svg">
    <path d="M52.035 44.603a7.434 7.434 0 1 0 0-14.868 7.434 7.434 0 0 0 0 14.868z" fill="url(#ajr7izu43a)"/>
    <path d="M56.963 36.468c-.32-.3-.72-.45-1.12-.45h-2.079v-1.953c0-.375-.16-.826-.48-1.051-.32-.3-.72-.45-1.12-.45-.399 0-.879.15-1.119.45-.32.3-.48.676-.48 1.051v1.953h-2.239c-.4 0-.88.15-1.12.45-.32.3-.48.676-.48 1.051 0 .376.16.826.48 1.051.32.3.72.451 1.12.451h2.08v1.952c0 .376.16.826.48 1.052.32.3.719.45 1.119.45s.88-.15 1.12-.45c.32-.3.48-.676.48-1.052v-1.952h2.079c.4 0 .88-.15 1.12-.45.32-.3.48-.676.48-1.052.16-.45 0-.826-.32-1.051z" fill="#FCFCFC"/>
    <path d="M45.787 15.946h-3.62v13.5h3.62v-13.5zM45.787 46.045h-3.62V59.47h3.62V46.045zM18.406 48.995h2.942v10.476h3.62V48.996h2.942v-2.951h-9.504v2.95zM39.526 36.97l-2.338-5.827h-4.224l4.526 9.664c-.302.442-.529.664-.83.811-.302.148-.679.222-1.207.222s-.905-.074-1.282-.222v2.656c.377.148.754.221 1.131.295.377.074.905.074 1.433.074 1.358 0 2.414-.369 3.32-1.18.829-.812 1.583-1.918 2.262-3.468l3.771-9h-4.224l-2.338 5.976zM57.553 47.373c-.83-.886-1.96-1.402-3.47-1.402h-6.712v13.426h3.62v-3.615h3.017c.98 0 1.81-.22 2.49-.663a4.204 4.204 0 0 0 1.659-1.771c.377-.738.603-1.55.603-2.508 0-1.328-.377-2.509-1.207-3.468zm-3.092 4.942c-.302.369-.754.517-1.282.517h-2.112v-3.837h2.262c.528 0 .981.148 1.283.517.301.369.452.811.452 1.401-.15.664-.301 1.107-.603 1.402zM40.28 53.495c.377-.737.604-1.549.604-2.508 0-1.475-.377-2.656-1.207-3.54-.83-.886-1.961-1.402-3.47-1.402h-6.713V59.47h3.62v-3.615h1.962l1.433 3.615h3.847l-1.66-4.279c.68-.369 1.207-.959 1.584-1.697zm-3.696-1.18c-.301.369-.754.517-1.282.517H33.19v-3.837h2.263c.528 0 .98.148 1.282.517.302.369.453.811.453 1.401-.151.664-.302 1.107-.604 1.402zM51.067 22.585l4.073 6.861h3.092v-13.5h-3.62v6.05l-3.545-6.05h-3.621v13.5h3.62v-6.86zM23.535 29.372c1.358-.442 2.037-1.475 2.339-2.803.075-.516.15-1.033.15-1.55v-9.073h-6.41v3.025h2.79v6.049c0 .738-.302 1.18-1.056 1.328-.98.147-2.037 0-2.942-.37v3.173c0 .148 1.509.369 1.66.369 1.131.221 2.413.221 3.47-.148zM32.285 31.217h-3.394l-3.545 6.418-3.62-6.418h-3.32v13.352h3.62V38.52l2.113 6.05h2.338l2.112-6.124v6.123h3.696V31.217zM30.4 28.93c1.055.59 2.338.885 3.77.885 1.434 0 2.716-.295 3.772-.885 1.056-.59 1.886-1.402 2.414-2.508.603-1.107.83-2.361.83-3.763 0-1.401-.302-2.656-.83-3.762-.604-1.033-1.358-1.844-2.414-2.435-1.056-.59-2.338-.885-3.771-.885-1.433 0-2.716.295-3.772.885a6.504 6.504 0 0 0-2.489 2.435c-.603 1.033-.905 2.287-.905 3.762 0 1.402.302 2.656.83 3.763.603 1.106 1.433 1.918 2.564 2.508zm1.282-9.443c.603-.738 1.433-1.106 2.489-1.106 1.056 0 1.885.368 2.489 1.106.603.738.905 1.77.905 3.172 0 1.402-.302 2.508-.905 3.246-.604.738-1.433 1.107-2.49 1.107-1.055 0-1.885-.37-2.488-1.107-.604-.738-.906-1.77-.906-3.246 0-1.328.302-2.434.906-3.172z" fill="#373A3C"/>
    <defs>
        <linearGradient id="ajr7izu43a" x1="44.602" y1="37.169" x2="59.469" y2="37.169" gradientUnits="userSpaceOnUse">
            <stop stop-color="#FF424E"/>
            <stop offset="1" stop-color="#FF9761"/>
        </linearGradient>
    </defs>
</svg>
