<svg width="23" height="23" viewBox="0 0 23 23" fill="none" xmlns="http://www.w3.org/2000/svg">
    <path d="m19.366 21.928 2.97-2.973a2.257 2.257 0 0 0 0-3.201l-3.2-3.2a2.256 2.256 0 0 0-1.598-.663c-.606 0-1.176.237-1.603.664l-2.339 2.339a10.994 10.994 0 0 1-3.24-2.247A11.034 11.034 0 0 1 8.1 9.407l2.34-2.34a2.256 2.256 0 0 0 0-3.201L7.242.664A2.258 2.258 0 0 0 5.641 0C5.035 0 4.466.237 4.04.664L1.072 3.631A3.669 3.669 0 0 0 0 6.22c0 .204.017.399.05.592.62 3.762 2.621 7.494 5.63 10.506 3.006 3.009 6.736 5.007 10.51 5.635a3.674 3.674 0 0 0 3.176-1.024z" fill="#5CB531"/>
</svg>
