<svg width="29" height="29" viewBox="0 0 29 29" fill="none" xmlns="http://www.w3.org/2000/svg">
    <path d="M14.5 1.208 3.625 6.042v7.25c0 6.706 4.64 12.977 10.875 14.5 6.235-1.523 10.875-7.794 10.875-14.5v-7.25L14.5 1.209zm0 7.25c1.692 0 3.383 1.33 3.383 3.021v1.813c.725 0 1.45.725 1.45 1.57v4.23c0 .725-.725 1.45-1.57 1.45h-6.646c-.725 0-1.45-.725-1.45-1.571v-4.23c0-.724.725-1.45 1.45-1.45V11.48c0-1.691 1.691-3.02 3.383-3.02zm0 1.45c-.967 0-1.813.605-1.813 1.571v1.813h3.626v-1.813c0-.966-.846-1.57-1.813-1.57z" fill="#282E65"/>
</svg>
