<svg width="18" height="17" viewBox="0 0 18 17" fill="none" xmlns="http://www.w3.org/2000/svg">
<path d="M8.74523 13.8135C8.64035 13.7583 8.51504 13.7583 8.41015 13.8135L3.66768 16.3072C3.40358 16.4461 3.09487 16.2218 3.14531 15.9277L4.05109 10.6467C4.07112 10.5299 4.0324 10.4108 3.94753 10.3281L0.109133 6.58723C-0.104562 6.37896 0.01333 6.01607 0.308622 5.97316L5.61124 5.20258C5.72847 5.18554 5.82982 5.11192 5.88226 5.0057L8.25484 0.200616C8.38693 -0.066891 8.7684 -0.0668665 8.90045 0.200657L11.2722 5.00567C11.3247 5.11191 11.426 5.18554 11.5433 5.20258L16.8459 5.97317C17.1412 6.01608 17.2591 6.37894 17.0455 6.58722L13.2078 10.328C13.123 10.4108 13.0843 10.5299 13.1043 10.6467L14.0109 15.9277C14.0613 16.2218 13.7526 16.4461 13.4885 16.3072L8.74523 13.8135Z" fill="white"/>
</svg>
