<svg width="21" height="21" viewBox="0 0 21 21" fill="none" xmlns="http://www.w3.org/2000/svg">
    <path d="m6.417 9.625-.583 1.808h1.167l-.584-1.808z" fill="#2CACD6"/>
    <path d="M17.675 1.75H8.342v2.917h2.333v1.166H3.092c-.992 0-1.75.759-1.75 1.75V14c0 .992.758 1.75 1.75 1.75h.583v2.975L7.35 15.75h3.909v-4.083h6.416c.992 0 1.75-.759 1.75-1.75V3.5c0-.992-.758-1.75-1.75-1.75zM7.642 13.358l-.292-.933H5.542l-.35.933h-1.4l1.925-5.191h1.4l1.925 5.191h-1.4zm8.867-4.608v1.167c-.759 0-1.575-.234-2.276-.584-.7.35-1.516.525-2.333.584l-.058-1.167a4.44 4.44 0 0 0 1.225-.175 3.985 3.985 0 0 1-1.05-1.867h1.225c.175.525.525.934.933 1.284a3.018 3.018 0 0 0 1.108-2.159h-3.5V4.667h1.75V3.5H14.7v1.167h1.925l.058.583A4.435 4.435 0 0 1 15.4 8.575c.409.117.758.175 1.109.175z" fill="#2CACD6"/>
</svg>
