<svg width="125" height="49" viewBox="0 0 125 49" fill="none" xmlns="http://www.w3.org/2000/svg">
    <path d="M62.073 9.364v3.196h-8.602V9.364h8.602zm-6.8-3.267h4.341v12.615c0 .266.041.482.124.648.09.16.216.275.382.346.166.065.364.098.595.098.166 0 .34-.015.524-.044a7.92 7.92 0 0 0 .426-.09l.657 3.135c-.207.059-.5.133-.88.222-.372.088-.819.145-1.34.168-1.018.048-1.89-.07-2.619-.355-.722-.29-1.275-.74-1.66-1.35-.379-.609-.562-1.375-.55-2.299V6.097zM64.288 23V9.364h4.217v2.485h.142c.249-.9.654-1.568 1.216-2.006a3.075 3.075 0 0 1 1.963-.666c.2 0 .408.015.62.045.214.023.412.062.596.115v3.773a4.15 4.15 0 0 0-.817-.169 7.244 7.244 0 0 0-.888-.062c-.515 0-.98.116-1.394.347a2.487 2.487 0 0 0-.967.95c-.231.402-.347.875-.347 1.42V23h-4.34zm10.523 0V9.364h4.34V23h-4.34zm2.175-15.226c-.61 0-1.134-.2-1.572-.603-.438-.409-.657-.9-.657-1.474 0-.568.22-1.053.657-1.456a2.224 2.224 0 0 1 1.572-.612c.615 0 1.139.204 1.571.612.438.403.657.888.657 1.456 0 .574-.219 1.065-.657 1.474-.432.402-.956.603-1.571.603zm4.93 20.34V9.364h4.296v2.334h.133c.178-.414.43-.813.755-1.198a3.787 3.787 0 0 1 1.26-.941c.515-.249 1.13-.373 1.847-.373.947 0 1.832.249 2.655.746.828.497 1.497 1.263 2.006 2.3.509 1.035.763 2.355.763 3.959 0 1.544-.245 2.838-.737 3.88-.485 1.041-1.142 1.822-1.97 2.343a5.024 5.024 0 0 1-2.744.781c-.686 0-1.281-.112-1.784-.337a3.886 3.886 0 0 1-1.27-.888 4.265 4.265 0 0 1-.78-1.18h-.09v7.324h-4.34zm4.252-11.932c0 .734.097 1.373.293 1.917.2.545.488.968.86 1.27.38.296.832.444 1.359.444.533 0 .985-.148 1.358-.444.373-.302.654-.725.844-1.27.195-.544.293-1.183.293-1.917s-.098-1.37-.293-1.909c-.19-.538-.47-.956-.844-1.252-.367-.296-.82-.444-1.358-.444-.533 0-.985.145-1.358.435-.373.29-.66.705-.861 1.243-.196.539-.293 1.181-.293 1.927z" fill="url(#kjtxxiavya)"/>
    <path d="M60.742 46.258c-1.439 0-2.673-.297-3.703-.888a6.006 6.006 0 0 1-2.361-2.468c-.55-1.06-.826-2.285-.826-3.676 0-1.397.276-2.622.826-3.675a6.05 6.05 0 0 1 2.37-2.477c1.03-.592 2.258-.888 3.685-.888 1.26 0 2.358.228 3.293.684.941.455 1.675 1.1 2.202 1.935.533.829.814 1.802.843 2.92h-4.057c-.083-.697-.32-1.245-.71-1.642-.385-.396-.888-.594-1.51-.594-.502 0-.943.142-1.322.426-.379.278-.675.692-.888 1.243-.207.544-.31 1.219-.31 2.024 0 .805.103 1.485.31 2.042.213.55.51.967.888 1.252.379.278.82.417 1.323.417.402 0 .757-.086 1.065-.258a2.05 2.05 0 0 0 .773-.754c.2-.338.328-.746.381-1.225h4.057c-.041 1.124-.322 2.107-.843 2.947-.515.84-1.24 1.494-2.175 1.962-.93.462-2.033.693-3.311.693zm14.917 0c-1.433 0-2.664-.294-3.694-.88a6.065 6.065 0 0 1-2.37-2.468c-.55-1.059-.826-2.287-.826-3.684 0-1.402.275-2.63.826-3.684a5.992 5.992 0 0 1 2.37-2.468c1.03-.592 2.261-.888 3.694-.888 1.432 0 2.66.296 3.684.888a5.92 5.92 0 0 1 2.37 2.468c.556 1.053.835 2.282.835 3.684 0 1.397-.279 2.625-.835 3.684a5.99 5.99 0 0 1-2.37 2.469c-1.024.586-2.252.879-3.684.879zm.026-3.277c.52 0 .962-.16 1.323-.479.36-.32.636-.763.826-1.332.195-.568.292-1.225.292-1.97 0-.758-.097-1.42-.293-1.99-.189-.567-.464-1.011-.825-1.33-.361-.32-.802-.48-1.323-.48-.538 0-.994.16-1.367.48-.367.319-.648.763-.843 1.33-.19.57-.285 1.232-.285 1.99 0 .745.095 1.402.285 1.97.195.569.476 1.012.843 1.332.373.32.829.48 1.367.48zM97.56 32.364 92.882 46H87.91l-4.67-13.636h4.572l2.513 9.392h.142l2.521-9.392h4.572zm7.6 13.894c-1.427 0-2.658-.282-3.694-.844a5.837 5.837 0 0 1-2.379-2.424c-.55-1.053-.826-2.305-.826-3.755 0-1.408.279-2.64.835-3.693a6.026 6.026 0 0 1 2.353-2.468c1.012-.592 2.204-.888 3.577-.888.971 0 1.859.151 2.664.453.805.302 1.5.748 2.086 1.34.586.592 1.042 1.323 1.367 2.193.326.864.488 1.856.488 2.974v1.083H99.78v-2.52h7.812a2.446 2.446 0 0 0-.328-1.235 2.23 2.23 0 0 0-.879-.843 2.538 2.538 0 0 0-1.27-.311c-.485 0-.92.11-1.305.328a2.462 2.462 0 0 0-1.269 2.13v2.567c0 .556.109 1.044.328 1.465.219.414.53.736.932.967.403.231.882.347 1.438.347.385 0 .734-.054 1.048-.16.314-.107.583-.264.808-.47.225-.208.393-.462.506-.764l3.986.115a4.936 4.936 0 0 1-1.092 2.335c-.556.657-1.287 1.169-2.193 1.536-.905.36-1.953.541-3.142.541zm8.689-.258V32.364h4.217v2.485h.142c.248-.9.654-1.568 1.216-2.006a3.074 3.074 0 0 1 1.962-.666c.201 0 .408.015.621.045.214.023.412.062.595.115v3.773a4.145 4.145 0 0 0-.816-.169 7.26 7.26 0 0 0-.888-.062c-.515 0-.98.116-1.394.346a2.492 2.492 0 0 0-.968.95c-.231.403-.346.876-.346 1.42V46h-4.341z" fill="url(#otxklxiysb)"/>
    <path d="M24.5 16.333a2.042 2.042 0 1 1 0 4.084 2.042 2.042 0 0 1 0-4.084zm18.375 6.125c0 11.331-7.84 21.928-18.375 24.5-10.535-2.572-18.375-13.169-18.375-24.5v-12.25L24.5 2.042l18.375 8.166v12.25zM24.5 12.25a6.125 6.125 0 0 0-6.125 6.125 6.105 6.105 0 0 0 4.083 5.778V36.75h4.084v-4.083h4.083v-4.084h-4.083v-4.43a6.105 6.105 0 0 0 4.083-5.778A6.125 6.125 0 0 0 24.5 12.25z" fill="url(#iup9emf0ac)"/>
    <defs>
        <linearGradient id="kjtxxiavya" x1="89" y1="11" x2="89" y2="48" gradientUnits="userSpaceOnUse">
            <stop stop-color="#8C1AEC"/>
            <stop offset="1" stop-color="#A437FF" stop-opacity=".88"/>
        </linearGradient>
        <linearGradient id="otxklxiysb" x1="89" y1="11" x2="89" y2="48" gradientUnits="userSpaceOnUse">
            <stop offset=".549" stop-color="#2A1C7E"/>
            <stop offset="1" stop-color="#341251" stop-opacity=".88"/>
        </linearGradient>
        <linearGradient id="iup9emf0ac" x1="24.5" y1="2.042" x2="24.5" y2="46.958" gradientUnits="userSpaceOnUse">
            <stop stop-color="#8C1AEC"/>
            <stop offset="1" stop-color="#A437FF" stop-opacity=".88"/>
        </linearGradient>
    </defs>
</svg>
