<svg width="20" height="20" viewBox="0 0 20 20" fill="none" xmlns="http://www.w3.org/2000/svg">
<path d="M9.99998 0C4.4861 0 0 4.4861 0 9.99998C0 15.5139 4.4861 20 9.99998 20C15.5139 20 20 15.5139 20 9.99998C20 4.4861 15.5139 0 9.99998 0ZM9.99998 18.2609C5.4452 18.2609 1.7391 14.5548 1.7391 9.99998C1.7391 5.4452 5.4452 1.73914 9.99998 1.73914C14.5548 1.73914 18.2609 5.4452 18.2609 9.99998C18.2609 14.5548 14.5548 18.2609 9.99998 18.2609Z" fill="#9c9c9c"/>
<path d="M14.6556 5.34522C14.5296 5.21825 14.3391 5.18173 14.1765 5.25306L8.08955 7.86175C7.98696 7.90525 7.90519 7.98783 7.86085 8.09046L5.25215 14.1774C5.18171 14.3409 5.21824 14.5304 5.34431 14.6565C5.42779 14.7383 5.53911 14.7826 5.65214 14.7826C5.70953 14.7826 5.76778 14.7704 5.82345 14.7479L11.9104 12.1392C12.013 12.0948 12.0948 12.0131 12.1391 11.9104L14.7478 5.82351C14.8174 5.66002 14.7809 5.47044 14.6556 5.34522ZM9.99998 10.8696C9.52083 10.8696 9.13042 10.4791 9.13042 10C9.13042 9.52088 9.52087 9.13048 9.99998 9.13048C10.4791 9.13048 10.8695 9.52092 10.8695 10C10.8696 10.4791 10.4791 10.8696 9.99998 10.8696Z" fill="#9c9c9c"/>
</svg>
